# xmcd CD database file
#
# Track frame offsets:
#	150
#	11642
#	24615
#	37110
#	54425
#	65320
#	79452
#	90657
#	101207
#	118300
#	134342
#	146855
#	164027
#	181112
#	198515
#
# Disc length: 2842 seconds
#
# Revision: 0
# Processed by: cddbd v1.4PL0 Copyright (c) Steve Scherf et al.
# Submitted via: Feurio! 1.63 - http://www.feurio.com
#
DISCID=df0b180f
DTITLE=The Gaturs - Wasted
DYEAR=1900
DGENRE=
TTITLE0=Booger Man
TTITLE1=Cold Bear
TTITLE2=Gatur Bait
TTITLE3=Nobody Can Be Your
TTITLE4=Hunk Of Funk
TTITLE5=Funky Funky Twist
TTITLE6=Wasted
TTITLE7=Yeah, You're Right
TTITLE8=Concentrate
TTITLE9=Get Up
TTITLE10=First Taste Of Hurt
TTITLE11=One Thrill Fool
TTITLE12=Man That I Am
TTITLE13=I'm Gonna Make You Love Me
TTITLE14=Sweet Thing
EXTD=
EXTT0=
EXTT1=
EXTT2=
EXTT3=
EXTT4=
EXTT5=
EXTT6=
EXTT7=
EXTT8=
EXTT9=
EXTT10=
EXTT11=
EXTT12=
EXTT13=
EXTT14=
PLAYORDER=
